<svg id="mermaid-6804f98b-186e-49d4-bc37-af846471f7f2" width="1638.83203125" xmlns="http://www.w3.org/2000/svg" class="flowchart" style="max-width: 1574.83203125px;" viewBox="-28 -28 1638.83203125 594" role="graphics-document document" aria-roledescription="flowchart-v2" xmlns:xlink="http://www.w3.org/1999/xlink" height="594"><rect x="-28" y="-28" width="1638.83203125" height="594" fill="#ffffff"/><style>#mermaid-6804f98b-186e-49d4-bc37-af846471f7f2{font-family:ui-sans-serif,-apple-system,BlinkMacSystemFont,"Segoe UI Variable Display","Segoe UI",Helvetica,"Apple Color Emoji","Noto Sans Arabic","Noto Sans Hebrew",Arial,sans-serif,"Segoe UI Emoji","Segoe UI Symbol";font-size:16px;fill:#000000;}@keyframes edge-animation-frame{from{stroke-dashoffset:0;}}@keyframes dash{to{stroke-dashoffset:0;}}#mermaid-6804f98b-186e-49d4-bc37-af846471f7f2 .edge-animation-slow{stroke-dasharray:9,5!important;stroke-dashoffset:900;animation:dash 50s linear infinite;stroke-linecap:round;}#mermaid-6804f98b-186e-49d4-bc37-af846471f7f2 .edge-animation-fast{stroke-dasharray:9,5!important;stroke-dashoffset:900;animation:dash 20s linear infinite;stroke-linecap:round;}#mermaid-6804f98b-186e-49d4-bc37-af846471f7f2 .error-icon{fill:#552222;}#mermaid-6804f98b-186e-49d4-bc37-af846471f7f2 .error-text{fill:#552222;stroke:#552222;}#mermaid-6804f98b-186e-49d4-bc37-af846471f7f2 .edge-thickness-normal{stroke-width:1px;}#mermaid-6804f98b-186e-49d4-bc37-af846471f7f2 .edge-thickness-thick{stroke-width:3.5px;}#mermaid-6804f98b-186e-49d4-bc37-af846471f7f2 .edge-pattern-solid{stroke-dasharray:0;}#mermaid-6804f98b-186e-49d4-bc37-af846471f7f2 .edge-thickness-invisible{stroke-width:0;fill:none;}#mermaid-6804f98b-186e-49d4-bc37-af846471f7f2 .edge-pattern-dashed{stroke-dasharray:3;}#mermaid-6804f98b-186e-49d4-bc37-af846471f7f2 .edge-pattern-dotted{stroke-dasharray:2;}#mermaid-6804f98b-186e-49d4-bc37-af846471f7f2 .marker{fill:#666;stroke:#666;}#mermaid-6804f98b-186e-49d4-bc37-af846471f7f2 .marker.cross{stroke:#666;}#mermaid-6804f98b-186e-49d4-bc37-af846471f7f2 svg{font-family:ui-sans-serif,-apple-system,BlinkMacSystemFont,"Segoe UI Variable Display","Segoe UI",Helvetica,"Apple Color Emoji","Noto Sans Arabic","Noto Sans Hebrew",Arial,sans-serif,"Segoe UI Emoji","Segoe UI Symbol";font-size:16px;}#mermaid-6804f98b-186e-49d4-bc37-af846471f7f2 p{margin:0;}#mermaid-6804f98b-186e-49d4-bc37-af846471f7f2 .label{font-family:ui-sans-serif,-apple-system,BlinkMacSystemFont,"Segoe UI Variable Display","Segoe UI",Helvetica,"Apple Color Emoji","Noto Sans Arabic","Noto Sans Hebrew",Arial,sans-serif,"Segoe UI Emoji","Segoe UI Symbol";color:#000000;}#mermaid-6804f98b-186e-49d4-bc37-af846471f7f2 .cluster-label text{fill:#333;}#mermaid-6804f98b-186e-49d4-bc37-af846471f7f2 .cluster-label span{color:#333;}#mermaid-6804f98b-186e-49d4-bc37-af846471f7f2 .cluster-label span p{background-color:transparent;}#mermaid-6804f98b-186e-49d4-bc37-af846471f7f2 .label text,#mermaid-6804f98b-186e-49d4-bc37-af846471f7f2 span{fill:#000000;color:#000000;}#mermaid-6804f98b-186e-49d4-bc37-af846471f7f2 .node rect,#mermaid-6804f98b-186e-49d4-bc37-af846471f7f2 .node circle,#mermaid-6804f98b-186e-49d4-bc37-af846471f7f2 .node ellipse,#mermaid-6804f98b-186e-49d4-bc37-af846471f7f2 .node polygon,#mermaid-6804f98b-186e-49d4-bc37-af846471f7f2 .node path{fill:#eee;stroke:#999;stroke-width:1px;}#mermaid-6804f98b-186e-49d4-bc37-af846471f7f2 .rough-node .label text,#mermaid-6804f98b-186e-49d4-bc37-af846471f7f2 .node .label text,#mermaid-6804f98b-186e-49d4-bc37-af846471f7f2 .image-shape .label,#mermaid-6804f98b-186e-49d4-bc37-af846471f7f2 .icon-shape .label{text-anchor:middle;}#mermaid-6804f98b-186e-49d4-bc37-af846471f7f2 .node .katex path{fill:#000;stroke:#000;stroke-width:1px;}#mermaid-6804f98b-186e-49d4-bc37-af846471f7f2 .rough-node .label,#mermaid-6804f98b-186e-49d4-bc37-af846471f7f2 .node .label,#mermaid-6804f98b-186e-49d4-bc37-af846471f7f2 .image-shape .label,#mermaid-6804f98b-186e-49d4-bc37-af846471f7f2 .icon-shape .label{text-align:center;}#mermaid-6804f98b-186e-49d4-bc37-af846471f7f2 .node.clickable{cursor:pointer;}#mermaid-6804f98b-186e-49d4-bc37-af846471f7f2 .root .anchor path{fill:#666!important;stroke-width:0;stroke:#666;}#mermaid-6804f98b-186e-49d4-bc37-af846471f7f2 .arrowheadPath{fill:#333333;}#mermaid-6804f98b-186e-49d4-bc37-af846471f7f2 .edgePath .path{stroke:#666;stroke-width:2.0px;}#mermaid-6804f98b-186e-49d4-bc37-af846471f7f2 .flowchart-link{stroke:#666;fill:none;}#mermaid-6804f98b-186e-49d4-bc37-af846471f7f2 .edgeLabel{background-color:white;text-align:center;}#mermaid-6804f98b-186e-49d4-bc37-af846471f7f2 .edgeLabel p{background-color:white;}#mermaid-6804f98b-186e-49d4-bc37-af846471f7f2 .edgeLabel rect{opacity:0.5;background-color:white;fill:white;}#mermaid-6804f98b-186e-49d4-bc37-af846471f7f2 .labelBkg{background-color:rgba(255, 255, 255, 0.5);}#mermaid-6804f98b-186e-49d4-bc37-af846471f7f2 .cluster rect{fill:hsl(0, 0%, 98.9215686275%);stroke:#707070;stroke-width:1px;}#mermaid-6804f98b-186e-49d4-bc37-af846471f7f2 .cluster text{fill:#333;}#mermaid-6804f98b-186e-49d4-bc37-af846471f7f2 .cluster span{color:#333;}#mermaid-6804f98b-186e-49d4-bc37-af846471f7f2 div.mermaidTooltip{position:absolute;text-align:center;max-width:200px;padding:2px;font-family:ui-sans-serif,-apple-system,BlinkMacSystemFont,"Segoe UI Variable Display","Segoe UI",Helvetica,"Apple Color Emoji","Noto Sans Arabic","Noto Sans Hebrew",Arial,sans-serif,"Segoe UI Emoji","Segoe UI Symbol";font-size:12px;background:hsl(-160, 0%, 93.3333333333%);border:1px solid #707070;border-radius:2px;pointer-events:none;z-index:100;}#mermaid-6804f98b-186e-49d4-bc37-af846471f7f2 .flowchartTitleText{text-anchor:middle;font-size:18px;fill:#000000;}#mermaid-6804f98b-186e-49d4-bc37-af846471f7f2 rect.text{fill:none;stroke-width:0;}#mermaid-6804f98b-186e-49d4-bc37-af846471f7f2 .icon-shape,#mermaid-6804f98b-186e-49d4-bc37-af846471f7f2 .image-shape{background-color:white;text-align:center;}#mermaid-6804f98b-186e-49d4-bc37-af846471f7f2 .icon-shape p,#mermaid-6804f98b-186e-49d4-bc37-af846471f7f2 .image-shape p{background-color:white;padding:2px;}#mermaid-6804f98b-186e-49d4-bc37-af846471f7f2 .icon-shape rect,#mermaid-6804f98b-186e-49d4-bc37-af846471f7f2 .image-shape rect{opacity:0.5;background-color:white;fill:white;}#mermaid-6804f98b-186e-49d4-bc37-af846471f7f2 .label-icon{display:inline-block;height:1em;overflow:visible;vertical-align:-0.125em;}#mermaid-6804f98b-186e-49d4-bc37-af846471f7f2 .node .label-icon path{fill:currentColor;stroke:revert;stroke-width:revert;}#mermaid-6804f98b-186e-49d4-bc37-af846471f7f2 :root{--mermaid-font-family:"trebuchet ms",verdana,arial,sans-serif;}</style><g><marker id="mermaid-6804f98b-186e-49d4-bc37-af846471f7f2_flowchart-v2-pointEnd" class="marker flowchart-v2" viewBox="0 0 10 10" refX="5" refY="5" markerUnits="userSpaceOnUse" markerWidth="8" markerHeight="8" orient="auto"><path d="M 0 0 L 10 5 L 0 10 z" class="arrowMarkerPath" style="stroke-width: 1; stroke-dasharray: 1, 0;"/></marker><marker id="mermaid-6804f98b-186e-49d4-bc37-af846471f7f2_flowchart-v2-pointStart" class="marker flowchart-v2" viewBox="0 0 10 10" refX="4.5" refY="5" markerUnits="userSpaceOnUse" markerWidth="8" markerHeight="8" orient="auto"><path d="M 0 5 L 10 10 L 10 0 z" class="arrowMarkerPath" style="stroke-width: 1; stroke-dasharray: 1, 0;"/></marker><marker id="mermaid-6804f98b-186e-49d4-bc37-af846471f7f2_flowchart-v2-circleEnd" class="marker flowchart-v2" viewBox="0 0 10 10" refX="11" refY="5" markerUnits="userSpaceOnUse" markerWidth="11" markerHeight="11" orient="auto"><circle cx="5" cy="5" r="5" class="arrowMarkerPath" style="stroke-width: 1; stroke-dasharray: 1, 0;"/></marker><marker id="mermaid-6804f98b-186e-49d4-bc37-af846471f7f2_flowchart-v2-circleStart" class="marker flowchart-v2" viewBox="0 0 10 10" refX="-1" refY="5" markerUnits="userSpaceOnUse" markerWidth="11" markerHeight="11" orient="auto"><circle cx="5" cy="5" r="5" class="arrowMarkerPath" style="stroke-width: 1; stroke-dasharray: 1, 0;"/></marker><marker id="mermaid-6804f98b-186e-49d4-bc37-af846471f7f2_flowchart-v2-crossEnd" class="marker cross flowchart-v2" viewBox="0 0 11 11" refX="12" refY="5.2" markerUnits="userSpaceOnUse" markerWidth="11" markerHeight="11" orient="auto"><path d="M 1,1 l 9,9 M 10,1 l -9,9" class="arrowMarkerPath" style="stroke-width: 2; stroke-dasharray: 1, 0;"/></marker><marker id="mermaid-6804f98b-186e-49d4-bc37-af846471f7f2_flowchart-v2-crossStart" class="marker cross flowchart-v2" viewBox="0 0 11 11" refX="-1" refY="5.2" markerUnits="userSpaceOnUse" markerWidth="11" markerHeight="11" orient="auto"><path d="M 1,1 l 9,9 M 10,1 l -9,9" class="arrowMarkerPath" style="stroke-width: 2; stroke-dasharray: 1, 0;"/></marker></g><g class="subgraphs"/><g class="nodes"><g class="node default" id="flowchart-U-0" transform="translate(748.06502413378, 39)"><rect class="basic label-container" style="" x="-71.23046875" y="-27" width="142.4609375" height="54"/><g class="label" style="" transform="translate(-41.23046875, -12)"><rect/><foreignObject width="82.4609375" height="24"><div xmlns="http://www.w3.org/1999/xhtml" style="display: table-cell; white-space: nowrap; line-height: 1.5; max-width: 200px; text-align: center;"><span class="nodeLabel"><p>User Query</p></span></div></foreignObject></g></g><g class="node default" id="flowchart-S-1" transform="translate(748.06502413378, 128)"><rect class="basic label-container" style="" x="-69.015625" y="-27" width="138.03125" height="54"/><g class="label" style="" transform="translate(-39.015625, -12)"><rect/><foreignObject width="78.03125" height="24"><div xmlns="http://www.w3.org/1999/xhtml" style="display: table-cell; white-space: nowrap; line-height: 1.5; max-width: 200px; text-align: center;"><span class="nodeLabel"><p>Supervisor</p></span></div></foreignObject></g></g><g class="node default" id="flowchart-CDA-3" transform="translate(142, 487)"><rect class="basic label-container" style="" x="-130" y="-39" width="260" height="78"/><g class="label" style="" transform="translate(-100, -24)"><rect/><foreignObject width="200" height="48"><div xmlns="http://www.w3.org/1999/xhtml" style="display: table; white-space: break-spaces; line-height: 1.5; max-width: 200px; text-align: center; width: 200px;"><span class="nodeLabel"><p>Competitor Discovery Agent</p></span></div></foreignObject></g></g><g class="node default" id="flowchart-WSA-7" transform="translate(404.20703125, 475)"><rect class="basic label-container" style="" x="-97.20703125" y="-27" width="194.4140625" height="54"/><g class="label" style="" transform="translate(-67.20703125, -12)"><rect/><foreignObject width="134.4140625" height="24"><div xmlns="http://www.w3.org/1999/xhtml" style="display: table-cell; white-space: nowrap; line-height: 1.5; max-width: 200px; text-align: center;"><span class="nodeLabel"><p>Web Search Agent</p></span></div></foreignObject></g></g><g class="node default" id="flowchart-RAG-11" transform="translate(605.75, 475)"><rect class="basic label-container" style="" x="-69.3359375" y="-27" width="138.671875" height="54"/><g class="label" style="" transform="translate(-39.3359375, -12)"><rect/><foreignObject width="78.671875" height="24"><div xmlns="http://www.w3.org/1999/xhtml" style="display: table-cell; white-space: nowrap; line-height: 1.5; max-width: 200px; text-align: center;"><span class="nodeLabel"><p>RAG Agent</p></span></div></foreignObject></g></g><g class="node default" id="flowchart-DGA-15" transform="translate(823.9179687499999, 475)"><rect class="basic label-container" style="" x="-113.83203125" y="-27" width="227.6640625" height="54"/><g class="label" style="" transform="translate(-83.83203125, -12)"><rect/><foreignObject width="167.6640625" height="24"><div xmlns="http://www.w3.org/1999/xhtml" style="display: table-cell; white-space: nowrap; line-height: 1.5; max-width: 200px; text-align: center;"><span class="nodeLabel"><p>Draft Generation Agent</p></span></div></foreignObject></g></g><g class="node default" id="flowchart-RVA-19" transform="translate(1089.53125, 475)"><rect class="basic label-container" style="" x="-116.78125" y="-27" width="233.5625" height="54"/><g class="label" style="" transform="translate(-86.78125, -12)"><rect/><foreignObject width="173.5625" height="24"><div xmlns="http://www.w3.org/1999/xhtml" style="display: table-cell; white-space: nowrap; line-height: 1.5; max-width: 200px; text-align: center;"><span class="nodeLabel"><p>Review Validation Agent</p></span></div></foreignObject></g></g><g class="node default" id="flowchart-FN-23" transform="translate(1332.50390625, 475)"><rect class="basic label-container" style="" x="-91.19140625" y="-27" width="182.3828125" height="54"/><g class="label" style="" transform="translate(-61.19140625, -12)"><rect/><foreignObject width="122.3828125" height="24"><div xmlns="http://www.w3.org/1999/xhtml" style="display: table-cell; white-space: nowrap; line-height: 1.5; max-width: 200px; text-align: center;"><span class="nodeLabel"><p>Formatting Node</p></span></div></foreignObject></g></g><g class="node default" id="flowchart-END-37" transform="translate(1502.57421875, 475)"><rect class="basic label-container" style="" x="-43.87890625" y="-27" width="87.7578125" height="54"/><g class="label" style="" transform="translate(-13.87890625, -12)"><rect/><foreignObject width="27.7578125" height="24"><div xmlns="http://www.w3.org/1999/xhtml" style="display: table-cell; white-space: nowrap; line-height: 1.5; max-width: 200px; text-align: center;"><span class="nodeLabel"><p>End</p></span></div></foreignObject></g></g></g><g class="edges edgePaths"><path d="M748.065,66L748.065,97" id="L_U_S_0_0" class="edge-thickness-normal edge-pattern-solid edge-thickness-normal edge-pattern-solid flowchart-link" style="" marker-end="url(#mermaid-6804f98b-186e-49d4-bc37-af846471f7f2_flowchart-v2-pointEnd)"/><path d="M700.844,155L700.844,162.917C700.844,170.833,700.844,186.667,700.482,195.055C700.12,203.443,699.396,204.386,698.563,205.219C697.729,206.052,696.787,206.776,625.013,207.138C553.238,207.5,410.633,207.5,338.859,207.862C267.085,208.224,266.142,208.948,265.309,209.781C264.475,210.614,263.751,211.557,263.39,235.612C263.028,259.667,263.028,306.833,263.028,342.333C263.028,377.833,263.028,401.667,262.666,414.055C262.304,426.443,261.58,427.386,260.747,428.219C259.913,429.052,258.97,429.776,250.828,430.138C242.685,430.5,227.343,430.5,219.2,430.862C211.057,431.224,210.114,431.948,209.281,432.781C208.448,433.614,207.724,434.557,207.362,436.445C207,438.333,207,441.167,207,442.583L207,444" id="L_S_CDA_0_0" class="edge-thickness-normal edge-pattern-solid edge-thickness-normal edge-pattern-solid flowchart-link" style="" marker-end="url(#mermaid-6804f98b-186e-49d4-bc37-af846471f7f2_flowchart-v2-pointEnd)"/><path d="M142,448L142,443C142,438,142,428,142.362,422.529C142.724,417.057,143.448,416.114,144.281,415.281C145.114,414.448,146.057,413.724,158.685,413.362C171.313,413,195.627,413,208.255,412.638C220.883,412.276,221.826,411.552,222.659,410.719C223.493,409.886,224.217,408.943,224.579,399.471C224.94,390,224.94,372,224.94,336.5C224.94,301,224.94,248,225.302,221.029C225.664,194.057,226.388,193.114,227.221,192.281C228.055,191.448,228.998,190.724,305.909,190.362C382.82,190,535.699,190,612.611,189.638C689.522,189.276,690.465,188.552,691.298,187.719C692.131,186.886,692.855,185.943,693.217,181.138C693.579,176.333,693.579,167.667,693.579,163.333L693.579,159" id="L_CDA_S_0_0" class="edge-thickness-normal edge-pattern-solid edge-thickness-normal edge-pattern-solid flowchart-link" style="" marker-end="url(#mermaid-6804f98b-186e-49d4-bc37-af846471f7f2_flowchart-v2-pointEnd)"/><path d="M722.638,155L722.638,171.667C722.638,188.333,722.638,221.667,722.276,238.805C721.914,255.943,721.19,256.886,720.357,257.719C719.524,258.552,718.581,259.276,676.5,259.638C634.42,260,551.201,260,509.12,260.362C467.04,260.724,466.097,261.448,465.264,262.281C464.43,263.114,463.706,264.057,463.344,279.362C462.983,294.667,462.983,324.333,462.983,345.25C462.983,366.167,462.983,378.333,462.621,384.888C462.259,391.443,461.535,392.386,460.701,393.219C459.868,394.052,458.925,394.776,458.425,395.138C457.925,395.5,457.868,395.5,457.368,395.862C456.868,396.224,455.925,396.948,455.092,397.781C454.258,398.614,453.534,399.557,453.172,407.279C452.811,415,452.811,429.5,452.811,436.75L452.811,444" id="L_S_WSA_0_0" class="edge-thickness-normal edge-pattern-solid edge-thickness-normal edge-pattern-solid flowchart-link" style="" marker-end="url(#mermaid-6804f98b-186e-49d4-bc37-af846471f7f2_flowchart-v2-pointEnd)"/><path d="M404.207,448L404.207,440.083C404.207,432.167,404.207,416.333,404.569,407.945C404.931,399.557,405.655,398.614,406.488,397.781C407.321,396.948,408.264,396.224,413.309,395.862C418.353,395.5,427.499,395.5,432.543,395.138C437.588,394.776,438.53,394.052,439.364,393.219C440.197,392.386,440.921,391.443,441.283,384.888C441.645,378.333,441.645,366.167,441.645,342.333C441.645,318.5,441.645,283,442.007,264.779C442.369,246.557,443.093,245.614,443.926,244.781C444.759,243.948,445.702,243.224,490.128,242.862C534.554,242.5,622.464,242.5,666.89,242.138C711.316,241.776,712.259,241.052,713.092,240.219C713.926,239.386,714.65,238.443,715.011,224.888C715.373,211.333,715.373,185.167,715.373,172.083L715.373,159" id="L_WSA_S_0_0" class="edge-thickness-normal edge-pattern-solid edge-thickness-normal edge-pattern-solid flowchart-link" style="" marker-end="url(#mermaid-6804f98b-186e-49d4-bc37-af846471f7f2_flowchart-v2-pointEnd)"/><path d="M744.433,155L744.433,180.417C744.433,205.833,744.433,256.667,744.071,282.555C743.709,308.443,742.985,309.386,742.152,310.219C741.318,311.052,740.375,311.776,729.808,312.138C719.241,312.5,699.049,312.5,688.482,312.862C677.915,313.224,676.972,313.948,676.139,314.781C675.305,315.614,674.581,316.557,674.219,323.112C673.858,329.667,673.858,341.833,673.858,356.917C673.858,372,673.858,390,673.496,399.471C673.134,408.943,672.41,409.886,671.576,410.719C670.743,411.552,669.8,412.276,665.422,412.638C661.044,413,653.231,413,648.853,413.362C644.475,413.724,643.532,414.448,642.699,415.281C641.866,416.114,641.142,417.057,640.78,421.862C640.418,426.667,640.418,435.333,640.418,439.667L640.418,444" id="L_S_RAG_0_0" class="edge-thickness-normal edge-pattern-solid edge-thickness-normal edge-pattern-solid flowchart-link" style="" marker-end="url(#mermaid-6804f98b-186e-49d4-bc37-af846471f7f2_flowchart-v2-pointEnd)"/><path d="M605.75,448L605.75,440.083C605.75,432.167,605.75,416.333,606.112,407.945C606.474,399.557,607.198,398.614,608.031,397.781C608.864,396.948,609.807,396.224,616.88,395.862C623.953,395.5,637.155,395.5,644.228,395.138C651.3,394.776,652.243,394.052,653.076,393.219C653.91,392.386,654.634,391.443,654.996,384.888C655.358,378.333,655.358,366.167,655.358,351.083C655.358,336,655.358,318,655.719,308.529C656.081,299.057,656.805,298.114,657.639,297.281C658.472,296.448,659.415,295.724,671.854,295.362C684.294,295,708.231,295,720.671,294.638C733.111,294.276,734.053,293.552,734.887,292.719C735.72,291.886,736.444,290.943,736.806,268.638C737.168,246.333,737.168,202.667,737.168,180.833L737.168,159" id="L_RAG_S_0_0" class="edge-thickness-normal edge-pattern-solid edge-thickness-normal edge-pattern-solid flowchart-link" style="" marker-end="url(#mermaid-6804f98b-186e-49d4-bc37-af846471f7f2_flowchart-v2-pointEnd)"/><path d="M766.227,155L766.227,174.583C766.227,194.167,766.227,233.333,766.589,253.388C766.951,273.443,767.675,274.386,768.508,275.219C769.341,276.052,770.284,276.776,790.853,277.138C811.422,277.5,851.618,277.5,872.187,277.862C892.756,278.224,893.698,278.948,894.532,279.781C895.365,280.614,896.089,281.557,896.451,293.945C896.813,306.333,896.813,330.167,896.813,348.167C896.813,366.167,896.813,378.333,896.451,384.888C896.089,391.443,895.365,392.386,894.532,393.219C893.698,394.052,892.756,394.776,891.288,395.138C889.82,395.5,887.827,395.5,886.359,395.862C884.891,396.224,883.948,396.948,883.115,397.781C882.282,398.614,881.558,399.557,881.196,407.279C880.834,415,880.834,429.5,880.834,436.75L880.834,444" id="L_S_DGA_0_0" class="edge-thickness-normal edge-pattern-solid edge-thickness-normal edge-pattern-solid flowchart-link" style="" marker-end="url(#mermaid-6804f98b-186e-49d4-bc37-af846471f7f2_flowchart-v2-pointEnd)"/><path d="M823.918,448L823.918,440.083C823.918,432.167,823.918,416.333,824.28,407.945C824.642,399.557,825.366,398.614,826.199,397.781C827.032,396.948,827.975,396.224,834.688,395.862C841.4,395.5,853.883,395.5,860.595,395.138C867.308,394.776,868.251,394.052,869.084,393.219C869.918,392.386,870.641,391.443,871.003,384.888C871.365,378.333,871.365,366.167,871.365,351.083C871.365,336,871.365,318,871.003,308.529C870.641,299.057,869.918,298.114,869.084,297.281C868.251,296.448,867.308,295.724,849.77,295.362C832.231,295,798.097,295,780.558,294.638C763.019,294.276,762.077,293.552,761.243,292.719C760.41,291.886,759.686,290.943,759.324,268.638C758.962,246.333,758.962,202.667,758.962,180.833L758.962,159" id="L_DGA_S_0_0" class="edge-thickness-normal edge-pattern-solid edge-thickness-normal edge-pattern-solid flowchart-link" style="" marker-end="url(#mermaid-6804f98b-186e-49d4-bc37-af846471f7f2_flowchart-v2-pointEnd)"/><path d="M788.021,155L788.021,165.833C788.021,176.667,788.021,198.333,788.383,209.638C788.745,220.943,789.469,221.886,790.302,222.719C791.136,223.552,792.079,224.276,850.867,224.638C909.655,225,1026.288,225,1085.077,225.362C1143.865,225.724,1144.807,226.448,1145.641,227.281C1146.474,228.114,1147.198,229.057,1147.56,250.195C1147.922,271.333,1147.922,312.667,1147.922,348.333C1147.922,384,1147.922,414,1147.922,429L1147.922,444" id="L_S_RVA_0_0" class="edge-thickness-normal edge-pattern-solid edge-thickness-normal edge-pattern-solid flowchart-link" style="" marker-end="url(#mermaid-6804f98b-186e-49d4-bc37-af846471f7f2_flowchart-v2-pointEnd)"/><path d="M1089.531,448L1089.531,439.25C1089.531,430.5,1089.531,413,1089.731,404.25C1089.931,395.5,1090.331,395.5,1090.531,388.583C1090.73,381.667,1090.73,367.833,1090.73,343.167C1090.73,318.5,1090.73,283,1090.368,264.779C1090.007,246.557,1089.283,245.614,1088.449,244.781C1087.616,243.948,1086.673,243.224,1036.206,242.862C985.739,242.5,885.748,242.5,835.281,242.138C784.814,241.776,783.871,241.052,783.038,240.219C782.204,239.386,781.48,238.443,781.119,224.888C780.757,211.333,780.757,185.167,780.757,172.083L780.757,159" id="L_RVA_S_0_0" class="edge-thickness-normal edge-pattern-solid edge-thickness-normal edge-pattern-solid flowchart-link" style="" marker-end="url(#mermaid-6804f98b-186e-49d4-bc37-af846471f7f2_flowchart-v2-pointEnd)"/><path d="M802.551,155L802.551,160C802.551,165,802.551,175,802.913,180.471C803.275,185.943,803.999,186.886,804.832,187.719C805.665,188.552,806.608,189.276,885.445,189.638C964.282,190,1121.012,190,1199.849,190.362C1278.686,190.724,1279.629,191.448,1280.462,192.281C1281.295,193.114,1282.019,194.057,1282.381,227.112C1282.743,260.167,1282.743,325.333,1283.105,358.388C1283.467,391.443,1284.191,392.386,1285.024,393.219C1285.857,394.052,1286.8,394.776,1298.965,395.138C1311.129,395.5,1334.515,395.5,1346.679,395.862C1358.844,396.224,1359.787,396.948,1360.62,397.781C1361.453,398.614,1362.177,399.557,1362.539,407.279C1362.901,415,1362.901,429.5,1362.901,436.75L1362.901,444" id="L_S_FN_0_0" class="edge-thickness-normal edge-pattern-solid edge-thickness-normal edge-pattern-solid flowchart-link" style="" marker-end="url(#mermaid-6804f98b-186e-49d4-bc37-af846471f7f2_flowchart-v2-pointEnd)"/><path d="M1302.107,448L1302.107,443C1302.107,438,1302.107,428,1301.745,422.529C1301.383,417.057,1300.659,416.114,1299.826,415.281C1298.992,414.448,1298.05,413.724,1282.851,413.362C1267.652,413,1238.198,413,1222.999,412.638C1207.8,412.276,1206.857,411.552,1206.024,410.719C1205.191,409.886,1204.467,408.943,1204.105,399.471C1203.743,390,1203.743,372,1203.743,339.417C1203.743,306.833,1203.743,259.667,1203.381,235.612C1203.019,211.557,1202.295,210.614,1201.462,209.781C1200.629,208.948,1199.686,208.224,1132.805,207.862C1065.924,207.5,933.105,207.5,866.224,207.138C799.343,206.776,798.401,206.052,797.567,205.219C796.734,204.386,796.01,203.443,795.648,195.721C795.286,188,795.286,173.5,795.286,166.25L795.286,159" id="L_FN_S_0_0" class="edge-thickness-normal edge-pattern-solid edge-thickness-normal edge-pattern-solid flowchart-link" style="" marker-end="url(#mermaid-6804f98b-186e-49d4-bc37-af846471f7f2_flowchart-v2-pointEnd)"/><path d="M686.314,155L686.314,157.083C686.314,159.167,686.314,163.333,685.952,165.888C685.59,168.443,684.866,169.386,684.033,170.219C683.2,171.052,682.257,171.776,593.025,172.138C503.794,172.5,326.273,172.5,237.042,172.862C147.81,173.224,146.867,173.948,146.034,174.781C145.201,175.614,144.477,176.557,144.115,212.529C143.753,248.5,143.753,319.5,143.391,355.471C143.029,391.443,142.305,392.386,141.472,393.219C140.639,394.052,139.696,394.776,129.766,395.138C119.835,395.5,100.918,395.5,90.987,395.862C81.057,396.224,80.114,396.948,79.281,397.781C78.448,398.614,77.724,399.557,77.362,407.279C77,415,77,429.5,77,436.75L77,444" id="L_S_CDA_2_0" class="edge-thickness-normal edge-pattern-solid edge-thickness-normal edge-pattern-solid flowchart-link" style="" marker-end="url(#mermaid-6804f98b-186e-49d4-bc37-af846471f7f2_flowchart-v2-pointEnd)"/><path d="M708.109,155L708.109,165.833C708.109,176.667,708.109,198.333,707.747,209.638C707.385,220.943,706.661,221.886,705.828,222.719C704.994,223.552,704.051,224.276,646.496,224.638C588.94,225,474.772,225,417.216,225.362C359.661,225.724,358.718,226.448,357.885,227.281C357.051,228.114,356.327,229.057,355.965,265.195C355.604,301.333,355.604,372.667,355.604,408.333L355.604,444" id="L_S_WSA_2_0" class="edge-thickness-normal edge-pattern-solid edge-thickness-normal edge-pattern-solid flowchart-link" style="" marker-end="url(#mermaid-6804f98b-186e-49d4-bc37-af846471f7f2_flowchart-v2-pointEnd)"/><path d="M729.903,155L729.903,174.583C729.903,194.167,729.903,233.333,729.541,253.388C729.179,273.443,728.455,274.386,727.622,275.219C726.789,276.052,725.846,276.776,698.721,277.138C671.596,277.5,618.289,277.5,591.165,277.862C564.04,278.224,563.097,278.948,562.264,279.781C561.43,280.614,560.706,281.557,560.344,300.029C559.983,318.5,559.983,354.5,560.344,372.971C560.706,391.443,561.43,392.386,562.264,393.219C563.097,394.052,564.04,394.776,564.694,395.138C565.349,395.5,565.716,395.5,566.37,395.862C567.025,396.224,567.968,396.948,568.801,397.781C569.634,398.614,570.358,399.557,570.72,407.279C571.082,415,571.082,429.5,571.082,436.75L571.082,444" id="L_S_RAG_2_0" class="edge-thickness-normal edge-pattern-solid edge-thickness-normal edge-pattern-solid flowchart-link" style="" marker-end="url(#mermaid-6804f98b-186e-49d4-bc37-af846471f7f2_flowchart-v2-pointEnd)"/><path d="M751.697,155L751.697,180.417C751.697,205.833,751.697,256.667,752.059,282.555C752.421,308.443,753.145,309.386,753.978,310.219C754.812,311.052,755.755,311.776,758.169,312.138C760.584,312.5,764.471,312.5,766.886,312.862C769.3,313.224,770.243,313.948,771.076,314.781C771.91,315.614,772.634,316.557,772.996,329.195C773.358,341.833,773.358,366.167,773.358,379.167C773.358,392.167,773.358,393.833,772.524,394.667C771.691,395.5,770.024,395.5,769.798,395.5C769.572,395.5,770.787,395.5,770.561,395.5C770.335,395.5,768.669,395.5,767.835,396.333C767.002,397.167,767.002,398.833,767.002,406.917C767.002,415,767.002,429.5,767.002,436.75L767.002,444" id="L_S_DGA_2_0" class="edge-thickness-normal edge-pattern-solid edge-thickness-normal edge-pattern-solid flowchart-link" style="" marker-end="url(#mermaid-6804f98b-186e-49d4-bc37-af846471f7f2_flowchart-v2-pointEnd)"/><path d="M773.492,155L773.492,171.667C773.492,188.333,773.492,221.667,773.854,238.805C774.216,255.943,774.94,256.886,775.773,257.719C776.606,258.552,777.549,259.276,815.478,259.638C853.407,260,928.323,260,966.252,260.362C1004.181,260.724,1005.124,261.448,1005.957,262.281C1006.791,263.114,1007.514,264.057,1007.876,285.445C1008.238,306.833,1008.238,348.667,1008.6,370.055C1008.962,391.443,1009.686,392.386,1010.519,393.219C1011.353,394.052,1012.295,394.776,1014.917,395.138C1017.539,395.5,1021.84,395.5,1024.462,395.862C1027.083,396.224,1028.026,396.948,1028.86,397.781C1029.693,398.614,1030.417,399.557,1030.779,407.279C1031.141,415,1031.141,429.5,1031.141,436.75L1031.141,444" id="L_S_RVA_2_0" class="edge-thickness-normal edge-pattern-solid edge-thickness-normal edge-pattern-solid flowchart-link" style="" marker-end="url(#mermaid-6804f98b-186e-49d4-bc37-af846471f7f2_flowchart-v2-pointEnd)"/><path d="M809.816,155L809.816,157.083C809.816,159.167,809.816,163.333,810.178,165.888C810.54,168.443,811.264,169.386,812.097,170.219C812.93,171.052,813.873,171.776,928.138,172.138C1042.402,172.5,1269.988,172.5,1384.253,172.862C1498.517,173.224,1499.46,173.948,1500.293,174.781C1501.127,175.614,1501.85,176.557,1502.212,221.445C1502.574,266.333,1502.574,355.167,1502.574,399.583L1502.574,444" id="L_S_END_0_0" class="edge-thickness-normal edge-pattern-solid edge-thickness-normal edge-pattern-solid flowchart-link" style="" marker-end="url(#mermaid-6804f98b-186e-49d4-bc37-af846471f7f2_flowchart-v2-pointEnd)"/></g><g class="edgeLabels"><g class="edgeLabel"><g class="label" transform="translate(0, 0)"><foreignObject width="0" height="0"><div xmlns="http://www.w3.org/1999/xhtml" class="labelBkg" style="display: table-cell; white-space: nowrap; line-height: 1.5; max-width: 200px; text-align: center;"><span class="edgeLabel"></span></div></foreignObject></g></g><g class="edgeLabel"><g class="label" transform="translate(0, 0)"><foreignObject width="0" height="0"><div xmlns="http://www.w3.org/1999/xhtml" class="labelBkg" style="display: table-cell; white-space: nowrap; line-height: 1.5; max-width: 200px; text-align: center;"><span class="edgeLabel"></span></div></foreignObject></g></g><g class="edgeLabel"><g class="label" transform="translate(0, 0)"><foreignObject width="0" height="0"><div xmlns="http://www.w3.org/1999/xhtml" class="labelBkg" style="display: table-cell; white-space: nowrap; line-height: 1.5; max-width: 200px; text-align: center;"><span class="edgeLabel"></span></div></foreignObject></g></g><g class="edgeLabel"><g class="label" transform="translate(0, 0)"><foreignObject width="0" height="0"><div xmlns="http://www.w3.org/1999/xhtml" class="labelBkg" style="display: table-cell; white-space: nowrap; line-height: 1.5; max-width: 200px; text-align: center;"><span class="edgeLabel"></span></div></foreignObject></g></g><g class="edgeLabel"><g class="label" transform="translate(0, 0)"><foreignObject width="0" height="0"><div xmlns="http://www.w3.org/1999/xhtml" class="labelBkg" style="display: table-cell; white-space: nowrap; line-height: 1.5; max-width: 200px; text-align: center;"><span class="edgeLabel"></span></div></foreignObject></g></g><g class="edgeLabel"><g class="label" transform="translate(0, 0)"><foreignObject width="0" height="0"><div xmlns="http://www.w3.org/1999/xhtml" class="labelBkg" style="display: table-cell; white-space: nowrap; line-height: 1.5; max-width: 200px; text-align: center;"><span class="edgeLabel"></span></div></foreignObject></g></g><g class="edgeLabel"><g class="label" transform="translate(0, 0)"><foreignObject width="0" height="0"><div xmlns="http://www.w3.org/1999/xhtml" class="labelBkg" style="display: table-cell; white-space: nowrap; line-height: 1.5; max-width: 200px; text-align: center;"><span class="edgeLabel"></span></div></foreignObject></g></g><g class="edgeLabel"><g class="label" transform="translate(0, 0)"><foreignObject width="0" height="0"><div xmlns="http://www.w3.org/1999/xhtml" class="labelBkg" style="display: table-cell; white-space: nowrap; line-height: 1.5; max-width: 200px; text-align: center;"><span class="edgeLabel"></span></div></foreignObject></g></g><g class="edgeLabel"><g class="label" transform="translate(0, 0)"><foreignObject width="0" height="0"><div xmlns="http://www.w3.org/1999/xhtml" class="labelBkg" style="display: table-cell; white-space: nowrap; line-height: 1.5; max-width: 200px; text-align: center;"><span class="edgeLabel"></span></div></foreignObject></g></g><g class="edgeLabel"><g class="label" transform="translate(0, 0)"><foreignObject width="0" height="0"><div xmlns="http://www.w3.org/1999/xhtml" class="labelBkg" style="display: table-cell; white-space: nowrap; line-height: 1.5; max-width: 200px; text-align: center;"><span class="edgeLabel"></span></div></foreignObject></g></g><g class="edgeLabel"><g class="label" transform="translate(0, 0)"><foreignObject width="0" height="0"><div xmlns="http://www.w3.org/1999/xhtml" class="labelBkg" style="display: table-cell; white-space: nowrap; line-height: 1.5; max-width: 200px; text-align: center;"><span class="edgeLabel"></span></div></foreignObject></g></g><g class="edgeLabel" transform="translate(1282.59455196212, 354)"><g class="label" transform="translate(-60.3515625, -12)"><foreignObject width="120.703125" height="24"><div xmlns="http://www.w3.org/1999/xhtml" class="labelBkg" style="display: table-cell; white-space: nowrap; line-height: 1.5; max-width: 200px; text-align: center;"><span class="edgeLabel"><p>if validation pass</p></span></div></foreignObject></g></g><g class="edgeLabel"><g class="label" transform="translate(0, 0)"><foreignObject width="0" height="0"><div xmlns="http://www.w3.org/1999/xhtml" class="labelBkg" style="display: table-cell; white-space: nowrap; line-height: 1.5; max-width: 200px; text-align: center;"><span class="edgeLabel"></span></div></foreignObject></g></g><g class="edgeLabel" transform="translate(143.34670039962023, 354)"><g class="label" transform="translate(-64.09375, -12)"><foreignObject width="128.1875" height="24"><div xmlns="http://www.w3.org/1999/xhtml" class="labelBkg" style="display: table-cell; white-space: nowrap; line-height: 1.5; max-width: 200px; text-align: center;"><span class="edgeLabel"><p>if competitors &lt; 3</p></span></div></foreignObject></g></g><g class="edgeLabel" transform="translate(355.462890625, 354)"><g class="label" transform="translate(-55.359375, -24)"><foreignObject width="110.71875" height="48"><div xmlns="http://www.w3.org/1999/xhtml" class="labelBkg" style="display: table-cell; white-space: nowrap; line-height: 1.5; max-width: 200px; text-align: center;"><span class="edgeLabel"><p>if results &lt; N or <br />freshness &lt; 70</p></span></div></foreignObject></g></g><g class="edgeLabel" transform="translate(559.6700011808701, 354)"><g class="label" transform="translate(-78.1875, -12)"><foreignObject width="156.375" height="24"><div xmlns="http://www.w3.org/1999/xhtml" class="labelBkg" style="display: table-cell; white-space: nowrap; line-height: 1.5; max-width: 200px; text-align: center;"><span class="edgeLabel"><p>if relevance score low</p></span></div></foreignObject></g></g><g class="edgeLabel" transform="translate(773.11140743087, 354)"><g class="label" transform="translate(-80.75390625, -24)"><foreignObject width="161.5078125" height="48"><div xmlns="http://www.w3.org/1999/xhtml" class="labelBkg" style="display: table-cell; white-space: nowrap; line-height: 1.5; max-width: 200px; text-align: center;"><span class="edgeLabel"><p>if template incomplete <br />or strategy weak</p></span></div></foreignObject></g></g><g class="edgeLabel" transform="translate(1008.2343175871201, 354)"><g class="label" transform="translate(-64.99609375, -12)"><foreignObject width="129.9921875" height="24"><div xmlns="http://www.w3.org/1999/xhtml" class="labelBkg" style="display: table-cell; white-space: nowrap; line-height: 1.5; max-width: 200px; text-align: center;"><span class="edgeLabel"><p>if recheck needed</p></span></div></foreignObject></g></g><g class="edgeLabel" transform="translate(1502.203125, 354)"><g class="label" transform="translate(-68.62890625, -12)"><foreignObject width="137.2578125" height="24"><div xmlns="http://www.w3.org/1999/xhtml" class="labelBkg" style="display: table-cell; white-space: nowrap; line-height: 1.5; max-width: 200px; text-align: center;"><span class="edgeLabel"><p>if final report ready</p></span></div></foreignObject></g></g></g></svg>